<svg width="1140.000000" height="374.000000" viewBox="0 0 1140 374" fill="none" xmlns="http://www.w3.org/2000/svg" xmlns:xlink="http://www.w3.org/1999/xlink">
	<desc>
			Created with Pixso.
	</desc>
	<defs/>
	<path id="Vector" d="M725.57 -0.01C644.2 -0.01 579.86 26.65 517.41 52.56C455.51 78.27 391.71 104.75 311.42 104.75C231.13 104.75 167.33 78.27 105.42 52.56C72.17 38.76 38.11 24.58 1.62 14.55L0.26 17.2C36.49 27.22 70.55 41.21 103.53 55.02C165.71 80.92 230.32 107.58 311.69 107.58C393.06 107.58 457.4 80.92 519.85 55.02C581.75 29.3 645.55 2.83 725.84 2.83C806.13 2.83 870.2 29.3 931.84 55.02C994.01 80.92 1058.63 107.58 1140 107.58L1140 104.75C1059.71 104.75 995.64 78.27 934 52.56C871.28 26.65 806.94 -0.01 725.57 -0.01Z" fill="#7587C7" fill-opacity="0.020000" fill-rule="nonzero"/>
	<path id="Vector" d="M725.57 19.09C644.2 19.09 579.86 45.75 517.42 71.66C455.51 97.37 391.71 123.84 311.42 123.84C231.13 123.84 167.06 97.37 105.43 71.66C72.17 57.85 37.84 43.67 1.35 33.65L0 36.3C36.22 46.32 70.28 60.31 103.26 74.11C165.44 100.02 230.05 126.68 311.42 126.68C392.79 126.68 457.13 100.02 519.58 74.11C581.49 48.4 645.28 21.93 725.57 21.93C805.86 21.93 869.93 48.4 931.57 74.11C993.75 100.02 1058.36 126.68 1139.73 126.68L1139.73 123.84C1059.43 123.84 995.37 97.37 933.73 71.66C871.28 45.75 806.94 19.09 725.57 19.09Z" fill="#7587C7" fill-opacity="0.020000" fill-rule="nonzero"/>
	<path id="Vector" d="M725.57 38C644.2 38 579.86 64.66 517.42 90.56C455.51 116.28 391.71 142.75 311.42 142.75C231.13 142.75 167.33 116.28 105.43 90.56C72.17 76.76 37.84 62.58 1.35 52.56L0 55.21C36.22 65.23 70.28 79.22 103.26 93.02C165.44 118.93 230.05 145.59 311.42 145.59C392.79 145.59 457.13 118.93 519.58 93.02C581.49 67.31 645.28 40.84 725.57 40.84C805.86 40.84 869.93 67.31 931.57 93.02C993.75 118.93 1058.36 145.59 1139.73 145.59L1139.73 142.75C1059.43 142.75 995.37 116.28 933.73 90.56C871.28 64.66 806.94 38 725.57 38Z" fill="#7587C7" fill-opacity="0.020000" fill-rule="nonzero"/>
	<path id="Vector" d="M725.57 57.1C644.2 57.1 579.86 83.76 517.41 109.66C455.51 135.38 391.71 161.85 311.42 161.85C231.13 161.85 167.06 135.38 105.42 109.66C72.17 95.86 38.11 81.68 1.62 71.66L0.26 74.3C36.49 84.32 70.55 98.32 103.53 112.12C165.71 138.02 230.32 164.68 311.69 164.68C393.06 164.68 457.4 138.02 519.85 112.12C581.75 86.4 645.55 59.93 725.84 59.93C806.13 59.93 870.2 86.4 931.84 112.12C994.01 138.02 1058.63 164.68 1140 164.68L1140 161.85C1059.71 161.85 995.64 135.38 934 109.66C871.28 83.76 806.94 57.1 725.57 57.1Z" fill="#7587C7" fill-opacity="0.020000" fill-rule="nonzero"/>
	<path id="Vector" d="M725.57 76C644.2 76 579.86 102.66 517.41 128.57C455.51 154.28 391.71 180.76 311.42 180.76C231.13 180.76 167.33 154.28 105.42 128.57C72.17 114.77 38.11 100.59 1.62 90.56L0.26 93.21C36.49 103.23 70.55 117.22 103.53 131.03C165.71 156.93 230.32 183.59 311.69 183.59C393.06 183.59 457.4 156.93 519.85 131.03C581.75 105.31 645.55 78.84 725.84 78.84C806.13 78.84 870.2 105.31 931.84 131.03C994.01 156.93 1058.63 183.59 1140 183.59L1140 180.76C1059.71 180.76 995.64 154.28 934 128.57C871.28 102.85 806.94 76 725.57 76Z" fill="#7587C7" fill-opacity="0.020000" fill-rule="nonzero"/>
	<path id="Vector" d="M725.57 95.1C644.2 95.1 579.86 121.76 517.41 147.67C455.51 173.38 391.71 199.85 311.42 199.85C231.13 199.85 167.33 173.38 105.42 147.67C72.17 133.86 38.11 119.68 1.62 109.66L0.26 112.31C36.49 122.33 70.55 136.32 103.53 150.12C165.71 176.03 230.32 202.69 311.69 202.69C393.06 202.69 457.4 176.03 519.85 150.12C581.75 124.41 645.55 97.94 725.84 97.94C806.13 97.94 870.2 124.41 931.84 150.12C994.01 176.03 1058.63 202.69 1140 202.69L1140 199.85C1059.71 199.85 995.64 173.38 934 147.67C871.28 121.76 806.94 95.1 725.57 95.1Z" fill="#7587C7" fill-opacity="0.020000" fill-rule="nonzero"/>
	<path id="Vector" d="M725.57 114.2C644.2 114.2 579.86 140.86 517.42 166.76C455.51 192.48 391.71 218.95 311.42 218.95C231.13 218.95 167.33 192.48 105.43 166.76C72.17 152.96 37.84 138.78 1.35 128.76L0 131.41C36.22 141.43 70.28 155.42 103.26 169.22C165.44 195.13 230.05 221.79 311.42 221.79C392.79 221.79 457.13 195.13 519.58 169.22C581.49 143.51 645.28 117.04 725.57 117.04C805.86 117.04 869.93 143.51 931.57 169.22C993.75 195.13 1058.36 221.79 1139.73 221.79L1139.73 218.95C1059.43 218.95 995.37 192.48 933.73 166.76C871.28 140.86 806.94 114.2 725.57 114.2Z" fill="#7587C7" fill-opacity="0.020000" fill-rule="nonzero"/>
	<path id="Vector" d="M725.57 133.11C644.2 133.11 579.86 159.77 517.42 185.67C455.51 211.39 391.71 237.86 311.42 237.86C231.13 237.86 167.33 211.39 105.43 185.67C72.17 171.87 37.84 157.69 1.35 147.67L0 150.31C36.22 160.33 70.28 174.33 103.26 188.13C165.44 214.03 230.05 240.69 311.42 240.69C392.79 240.69 457.13 214.03 519.58 188.13C581.49 162.41 645.28 135.94 725.57 135.94C805.86 135.94 869.93 162.41 931.57 188.13C993.75 214.03 1058.36 240.69 1139.73 240.69L1139.73 237.86C1059.43 237.86 995.37 211.39 933.73 185.67C871.28 159.96 806.94 133.11 725.57 133.11Z" fill="#7587C7" fill-opacity="0.020000" fill-rule="nonzero"/>
	<path id="Vector" d="M725.57 152.2C644.2 152.2 579.86 178.86 517.41 204.77C455.51 230.48 391.71 256.95 311.42 256.95C231.13 256.95 167.33 230.48 105.42 204.77C72.17 190.97 38.11 176.78 1.62 166.76L0.26 169.41C36.49 179.43 70.55 193.42 103.53 207.23C165.71 233.13 230.32 259.79 311.69 259.79C393.06 259.79 457.4 233.13 519.85 207.23C581.75 181.51 645.55 155.04 725.84 155.04C806.13 155.04 870.2 181.51 931.84 207.23C994.01 233.13 1058.63 259.79 1140 259.79L1140 256.95C1059.71 256.95 995.64 230.48 934 204.77C871.28 178.86 806.94 152.2 725.57 152.2Z" fill="#7587C7" fill-opacity="0.020000" fill-rule="nonzero"/>
	<path id="Vector" d="M725.57 171.3C644.2 171.3 579.86 197.96 517.42 223.87C455.51 249.58 391.71 276.05 311.42 276.05C231.13 276.05 167.33 249.58 105.43 223.87C72.17 210.06 37.84 195.88 1.35 185.86L0 188.51C36.22 198.53 70.28 212.52 103.26 226.33C165.44 252.23 230.05 278.89 311.42 278.89C392.79 278.89 457.13 252.23 519.58 226.33C581.49 200.61 645.28 174.14 725.57 174.14C805.86 174.14 869.93 200.61 931.57 226.33C993.75 252.23 1058.36 278.89 1139.73 278.89L1139.73 276.05C1059.43 276.05 995.37 249.58 933.73 223.87C871.28 197.96 806.94 171.3 725.57 171.3Z" fill="#7587C7" fill-opacity="0.020000" fill-rule="nonzero"/>
	<path id="Vector" d="M725.57 190.21C644.2 190.21 579.86 216.87 517.42 242.77C455.51 268.49 391.71 294.96 311.42 294.96C231.13 294.96 167.33 268.49 105.43 242.77C72.17 228.97 37.84 214.79 1.35 204.77L0 207.42C36.22 217.44 70.28 231.43 103.26 245.23C165.44 271.14 230.05 297.8 311.42 297.8C392.79 297.8 457.13 271.14 519.58 245.23C581.49 219.52 645.28 193.05 725.57 193.05C805.86 193.05 869.93 219.52 931.57 245.23C993.75 271.14 1058.36 297.8 1139.73 297.8L1139.73 294.96C1059.43 294.96 995.37 268.49 933.73 242.77C871.28 216.87 806.94 190.21 725.57 190.21Z" fill="#7587C7" fill-opacity="0.020000" fill-rule="nonzero"/>
	<path id="Vector" d="M725.57 209.31C644.2 209.31 579.86 235.97 517.41 261.87C455.51 287.59 391.71 314.06 311.42 314.06C231.13 314.06 167.06 287.59 105.42 261.87C72.17 248.07 38.11 233.89 1.62 223.87L0.26 226.51C36.49 236.53 70.55 250.53 103.53 264.33C165.71 290.23 230.32 316.89 311.69 316.89C393.06 316.89 457.4 290.23 519.85 264.33C581.75 238.61 645.55 212.14 725.84 212.14C806.13 212.14 870.2 238.61 931.84 264.33C994.01 290.23 1058.63 316.89 1140 316.89L1140 314.06C1059.71 314.06 995.64 287.59 934 261.87C871.28 235.97 806.94 209.31 725.57 209.31Z" fill="#7587C7" fill-opacity="0.020000" fill-rule="nonzero"/>
	<path id="Vector" d="M725.57 228.21C644.2 228.21 579.86 254.87 517.41 280.78C455.51 306.49 391.71 332.97 311.42 332.97C231.13 332.97 167.06 306.49 105.42 280.78C72.17 266.98 38.11 252.8 1.62 242.77L0.26 245.42C36.49 255.44 70.55 269.43 103.53 283.24C165.71 309.14 230.32 335.8 311.69 335.8C393.06 335.8 457.4 309.14 519.85 283.24C581.75 257.52 645.55 231.05 725.84 231.05C806.13 231.05 870.2 257.52 931.84 283.24C994.01 309.14 1058.63 335.8 1140 335.8L1140 332.97C1059.71 332.97 995.64 306.49 934 280.78C871.28 255.06 806.94 228.21 725.57 228.21Z" fill="#7587C7" fill-opacity="0.020000" fill-rule="nonzero"/>
	<path id="Vector" d="M725.57 247.31C644.2 247.31 579.86 273.97 517.41 299.88C455.51 325.4 391.71 351.87 311.42 351.87C231.13 351.87 167.06 325.4 105.42 299.69C72.17 285.89 38.11 271.7 1.62 261.68L0.26 264.33C36.49 274.35 70.55 288.34 103.53 302.15C165.71 328.05 230.32 354.71 311.69 354.71C393.06 354.71 457.4 328.05 519.85 302.15C581.75 276.43 645.55 249.96 725.84 249.96C806.13 249.96 870.2 276.43 931.84 302.15C994.01 328.05 1058.63 354.71 1140 354.71L1140 351.87C1059.71 351.87 995.64 325.4 934 299.69C871.28 273.97 806.94 247.31 725.57 247.31Z" fill="#7587C7" fill-opacity="0.020000" fill-rule="nonzero"/>
	<path id="Vector" d="M725.57 266.41C644.2 266.41 579.86 293.07 517.41 318.97C455.51 344.69 391.71 371.16 311.42 371.16C231.13 371.16 167.33 344.69 105.42 318.97C72.17 305.17 38.11 290.99 1.62 280.97L0.26 283.62C36.49 293.64 70.55 307.63 103.53 321.43C165.71 347.34 230.32 374 311.69 374C393.06 374 457.4 347.34 519.85 321.43C581.75 295.72 645.55 269.25 725.84 269.25C806.13 269.25 870.2 295.72 931.84 321.43C994.01 347.34 1058.63 374 1140 374L1140 371.16C1059.71 371.16 995.64 344.69 934 318.97C871.28 293.07 806.94 266.41 725.57 266.41Z" fill="#7587C7" fill-opacity="0.020000" fill-rule="nonzero"/>
</svg>
