<svg width="42.000000" height="35.000000" viewBox="0 0 42 35" fill="none" xmlns="http://www.w3.org/2000/svg" xmlns:xlink="http://www.w3.org/1999/xlink">
	<desc>
			Created with Pixso.
	</desc>
	<defs/>
	<path id="Vector" d="M13.22 15.64C12.21 15.35 11.19 15.2 10.2 15.2C8.67 15.2 7.39 15.55 6.4 15.97C7.36 12.48 9.65 6.46 14.21 5.78C14.64 5.72 14.98 5.41 15.1 5L16.09 1.43C16.18 1.13 16.13 0.81 15.96 0.54C15.78 0.28 15.51 0.11 15.2 0.06C14.86 0.02 14.52 0 14.18 0C8.7 0 3.27 5.71 0.98 13.9C-0.36 18.71 -0.76 25.93 2.56 30.47C4.41 33.02 7.11 34.38 10.59 34.51C10.6 34.51 10.62 34.51 10.63 34.51C14.92 34.51 18.73 31.62 19.89 27.49C20.58 25.01 20.26 22.42 19 20.18C17.76 17.97 15.71 16.35 13.22 15.64Z" fill="#D93059" fill-opacity="1.000000" fill-rule="nonzero"/>
	<path id="Vector" d="M40.09 20.18C38.84 17.97 36.79 16.35 34.31 15.64C33.29 15.35 32.27 15.2 31.28 15.2C29.75 15.2 28.47 15.55 27.48 15.97C28.44 12.48 30.73 6.46 35.29 5.78C35.72 5.72 36.06 5.41 36.18 5L37.18 1.43C37.26 1.13 37.21 0.81 37.04 0.54C36.87 0.28 36.59 0.11 36.28 0.06C35.94 0.02 35.6 0 35.26 0C29.78 0 24.36 5.71 22.06 13.9C20.72 18.71 20.33 25.93 23.64 30.47C25.49 33.02 28.19 34.38 31.67 34.51C31.69 34.51 31.7 34.51 31.71 34.51C36.01 34.51 39.81 31.62 40.97 27.49C41.66 25.01 41.35 22.42 40.09 20.18Z" fill="#D93059" fill-opacity="1.000000" fill-rule="nonzero"/>
</svg>
