<svg width="1148.000000" height="382.000000" viewBox="0 0 1148 382" fill="none" xmlns="http://www.w3.org/2000/svg" xmlns:xlink="http://www.w3.org/1999/xlink">
	<desc>
			Created with Pixso.
	</desc>
	<defs>
		<filter id="filter_25_395_dd" x="0.000000" y="-0.000977" width="1148.000000" height="382.000977" filterUnits="userSpaceOnUse" color-interpolation-filters="sRGB">
			<feFlood flood-opacity="0" result="BackgroundImageFix"/>
			<feColorMatrix in="SourceAlpha" type="matrix" values="0 0 0 0 0 0 0 0 0 0 0 0 0 0 0 0 0 0 127 0" result="hardAlpha"/>
			<feOffset dx="0" dy="4"/>
			<feGaussianBlur stdDeviation="1.33333"/>
			<feComposite in2="hardAlpha" operator="out" k2="-1" k3="1"/>
			<feColorMatrix type="matrix" values="0 0 0 0 0 0 0 0 0 0 0 0 0 0 0 0 0 0 0.25 0"/>
			<feBlend mode="normal" in2="BackgroundImageFix" result="effect_dropShadow_1"/>
			<feBlend mode="normal" in="SourceGraphic" in2="effect_dropShadow_1" result="shape"/>
		</filter>
	</defs>
	<g filter="url(#filter_25_395_dd)">
		<path id="Vector" d="M729.57 -0.01C648.2 -0.01 583.86 26.65 521.41 52.56C459.51 78.27 395.71 104.75 315.42 104.75C235.13 104.75 171.33 78.27 109.42 52.56C76.17 38.76 42.11 24.58 5.62 14.55L4.26 17.2C40.49 27.22 74.55 41.21 107.53 55.02C169.71 80.92 234.32 107.58 315.69 107.58C397.06 107.58 461.4 80.92 523.85 55.02C585.75 29.3 649.55 2.83 729.84 2.83C810.13 2.83 874.2 29.3 935.84 55.02C998.01 80.92 1062.63 107.58 1144 107.58L1144 104.75C1063.71 104.75 999.64 78.27 938 52.56C875.28 26.65 810.94 -0.01 729.57 -0.01Z" fill="#7587C7" fill-opacity="0.020000" fill-rule="nonzero"/>
		<path id="Vector" d="M729.57 19.09C648.2 19.09 583.86 45.75 521.42 71.66C459.51 97.37 395.71 123.84 315.42 123.84C235.13 123.84 171.06 97.37 109.43 71.66C76.17 57.85 41.84 43.67 5.35 33.65L4 36.3C40.22 46.32 74.28 60.31 107.26 74.11C169.44 100.02 234.05 126.68 315.42 126.68C396.79 126.68 461.13 100.02 523.58 74.11C585.49 48.4 649.28 21.93 729.57 21.93C809.86 21.93 873.93 48.4 935.57 74.11C997.75 100.02 1062.36 126.68 1143.73 126.68L1143.73 123.84C1063.43 123.84 999.37 97.37 937.73 71.66C875.28 45.75 810.94 19.09 729.57 19.09Z" fill="#7587C7" fill-opacity="0.020000" fill-rule="nonzero"/>
		<path id="Vector" d="M729.57 38C648.2 38 583.86 64.66 521.42 90.56C459.51 116.28 395.71 142.75 315.42 142.75C235.13 142.75 171.33 116.28 109.43 90.56C76.17 76.76 41.84 62.58 5.35 52.56L4 55.21C40.22 65.23 74.28 79.22 107.26 93.02C169.44 118.93 234.05 145.59 315.42 145.59C396.79 145.59 461.13 118.93 523.58 93.02C585.49 67.31 649.28 40.84 729.57 40.84C809.86 40.84 873.93 67.31 935.57 93.02C997.75 118.93 1062.36 145.59 1143.73 145.59L1143.73 142.75C1063.43 142.75 999.37 116.28 937.73 90.56C875.28 64.66 810.94 38 729.57 38Z" fill="#7587C7" fill-opacity="0.020000" fill-rule="nonzero"/>
		<path id="Vector" d="M729.57 57.1C648.2 57.1 583.86 83.76 521.41 109.66C459.51 135.38 395.71 161.85 315.42 161.85C235.13 161.85 171.06 135.38 109.42 109.66C76.17 95.86 42.11 81.68 5.62 71.66L4.26 74.3C40.49 84.32 74.55 98.32 107.53 112.12C169.71 138.02 234.32 164.68 315.69 164.68C397.06 164.68 461.4 138.02 523.85 112.12C585.75 86.4 649.55 59.93 729.84 59.93C810.13 59.93 874.2 86.4 935.84 112.12C998.01 138.02 1062.63 164.68 1144 164.68L1144 161.85C1063.71 161.85 999.64 135.38 938 109.66C875.28 83.76 810.94 57.1 729.57 57.1Z" fill="#7587C7" fill-opacity="0.020000" fill-rule="nonzero"/>
		<path id="Vector" d="M729.57 76C648.2 76 583.86 102.66 521.41 128.57C459.51 154.28 395.71 180.76 315.42 180.76C235.13 180.76 171.33 154.28 109.42 128.57C76.17 114.77 42.11 100.59 5.62 90.56L4.26 93.21C40.49 103.23 74.55 117.22 107.53 131.03C169.71 156.93 234.32 183.59 315.69 183.59C397.06 183.59 461.4 156.93 523.85 131.03C585.75 105.31 649.55 78.84 729.84 78.84C810.13 78.84 874.2 105.31 935.84 131.03C998.01 156.93 1062.63 183.59 1144 183.59L1144 180.76C1063.71 180.76 999.64 154.28 938 128.57C875.28 102.85 810.94 76 729.57 76Z" fill="#7587C7" fill-opacity="0.020000" fill-rule="nonzero"/>
		<path id="Vector" d="M729.57 95.1C648.2 95.1 583.86 121.76 521.41 147.67C459.51 173.38 395.71 199.85 315.42 199.85C235.13 199.85 171.33 173.38 109.42 147.67C76.17 133.86 42.11 119.68 5.62 109.66L4.26 112.31C40.49 122.33 74.55 136.32 107.53 150.12C169.71 176.03 234.32 202.69 315.69 202.69C397.06 202.69 461.4 176.03 523.85 150.12C585.75 124.41 649.55 97.94 729.84 97.94C810.13 97.94 874.2 124.41 935.84 150.12C998.01 176.03 1062.63 202.69 1144 202.69L1144 199.85C1063.71 199.85 999.64 173.38 938 147.67C875.28 121.76 810.94 95.1 729.57 95.1Z" fill="#7587C7" fill-opacity="0.020000" fill-rule="nonzero"/>
		<path id="Vector" d="M729.57 114.2C648.2 114.2 583.86 140.86 521.42 166.76C459.51 192.48 395.71 218.95 315.42 218.95C235.13 218.95 171.33 192.48 109.43 166.76C76.17 152.96 41.84 138.78 5.35 128.76L4 131.41C40.22 141.43 74.28 155.42 107.26 169.22C169.44 195.13 234.05 221.79 315.42 221.79C396.79 221.79 461.13 195.13 523.58 169.22C585.49 143.51 649.28 117.04 729.57 117.04C809.86 117.04 873.93 143.51 935.57 169.22C997.75 195.13 1062.36 221.79 1143.73 221.79L1143.73 218.95C1063.43 218.95 999.37 192.48 937.73 166.76C875.28 140.86 810.94 114.2 729.57 114.2Z" fill="#7587C7" fill-opacity="0.020000" fill-rule="nonzero"/>
		<path id="Vector" d="M729.57 133.11C648.2 133.11 583.86 159.77 521.42 185.67C459.51 211.39 395.71 237.86 315.42 237.86C235.13 237.86 171.33 211.39 109.43 185.67C76.17 171.87 41.84 157.69 5.35 147.67L4 150.31C40.22 160.33 74.28 174.33 107.26 188.13C169.44 214.03 234.05 240.69 315.42 240.69C396.79 240.69 461.13 214.03 523.58 188.13C585.49 162.41 649.28 135.94 729.57 135.94C809.86 135.94 873.93 162.41 935.57 188.13C997.75 214.03 1062.36 240.69 1143.73 240.69L1143.73 237.86C1063.43 237.86 999.37 211.39 937.73 185.67C875.28 159.96 810.94 133.11 729.57 133.11Z" fill="#7587C7" fill-opacity="0.020000" fill-rule="nonzero"/>
		<path id="Vector" d="M729.57 152.2C648.2 152.2 583.86 178.86 521.41 204.77C459.51 230.48 395.71 256.95 315.42 256.95C235.13 256.95 171.33 230.48 109.42 204.77C76.17 190.97 42.11 176.78 5.62 166.76L4.26 169.41C40.49 179.43 74.55 193.42 107.53 207.23C169.71 233.13 234.32 259.79 315.69 259.79C397.06 259.79 461.4 233.13 523.85 207.23C585.75 181.51 649.55 155.04 729.84 155.04C810.13 155.04 874.2 181.51 935.84 207.23C998.01 233.13 1062.63 259.79 1144 259.79L1144 256.95C1063.71 256.95 999.64 230.48 938 204.77C875.28 178.86 810.94 152.2 729.57 152.2Z" fill="#7587C7" fill-opacity="0.020000" fill-rule="nonzero"/>
		<path id="Vector" d="M729.57 171.3C648.2 171.3 583.86 197.96 521.42 223.87C459.51 249.58 395.71 276.05 315.42 276.05C235.13 276.05 171.33 249.58 109.43 223.87C76.17 210.06 41.84 195.88 5.35 185.86L4 188.51C40.22 198.53 74.28 212.52 107.26 226.33C169.44 252.23 234.05 278.89 315.42 278.89C396.79 278.89 461.13 252.23 523.58 226.33C585.49 200.61 649.28 174.14 729.57 174.14C809.86 174.14 873.93 200.61 935.57 226.33C997.75 252.23 1062.36 278.89 1143.73 278.89L1143.73 276.05C1063.43 276.05 999.37 249.58 937.73 223.87C875.28 197.96 810.94 171.3 729.57 171.3Z" fill="#7587C7" fill-opacity="0.020000" fill-rule="nonzero"/>
		<path id="Vector" d="M729.57 190.21C648.2 190.21 583.86 216.87 521.42 242.77C459.51 268.49 395.71 294.96 315.42 294.96C235.13 294.96 171.33 268.49 109.43 242.77C76.17 228.97 41.84 214.79 5.35 204.77L4 207.42C40.22 217.44 74.28 231.43 107.26 245.23C169.44 271.14 234.05 297.8 315.42 297.8C396.79 297.8 461.13 271.14 523.58 245.23C585.49 219.52 649.28 193.05 729.57 193.05C809.86 193.05 873.93 219.52 935.57 245.23C997.75 271.14 1062.36 297.8 1143.73 297.8L1143.73 294.96C1063.43 294.96 999.37 268.49 937.73 242.77C875.28 216.87 810.94 190.21 729.57 190.21Z" fill="#7587C7" fill-opacity="0.020000" fill-rule="nonzero"/>
		<path id="Vector" d="M729.57 209.31C648.2 209.31 583.86 235.97 521.41 261.87C459.51 287.59 395.71 314.06 315.42 314.06C235.13 314.06 171.06 287.59 109.42 261.87C76.17 248.07 42.11 233.89 5.62 223.87L4.26 226.51C40.49 236.53 74.55 250.53 107.53 264.33C169.71 290.23 234.32 316.89 315.69 316.89C397.06 316.89 461.4 290.23 523.85 264.33C585.75 238.61 649.55 212.14 729.84 212.14C810.13 212.14 874.2 238.61 935.84 264.33C998.01 290.23 1062.63 316.89 1144 316.89L1144 314.06C1063.71 314.06 999.64 287.59 938 261.87C875.28 235.97 810.94 209.31 729.57 209.31Z" fill="#7587C7" fill-opacity="0.020000" fill-rule="nonzero"/>
		<path id="Vector" d="M729.57 228.21C648.2 228.21 583.86 254.87 521.41 280.78C459.51 306.49 395.71 332.97 315.42 332.97C235.13 332.97 171.06 306.49 109.42 280.78C76.17 266.98 42.11 252.8 5.62 242.77L4.26 245.42C40.49 255.44 74.55 269.43 107.53 283.24C169.71 309.14 234.32 335.8 315.69 335.8C397.06 335.8 461.4 309.14 523.85 283.24C585.75 257.52 649.55 231.05 729.84 231.05C810.13 231.05 874.2 257.52 935.84 283.24C998.01 309.14 1062.63 335.8 1144 335.8L1144 332.97C1063.71 332.97 999.64 306.49 938 280.78C875.28 255.06 810.94 228.21 729.57 228.21Z" fill="#7587C7" fill-opacity="0.020000" fill-rule="nonzero"/>
		<path id="Vector" d="M729.57 247.31C648.2 247.31 583.86 273.97 521.41 299.88C459.51 325.4 395.71 351.87 315.42 351.87C235.13 351.87 171.06 325.4 109.42 299.69C76.17 285.89 42.11 271.7 5.62 261.68L4.26 264.33C40.49 274.35 74.55 288.34 107.53 302.15C169.71 328.05 234.32 354.71 315.69 354.71C397.06 354.71 461.4 328.05 523.85 302.15C585.75 276.43 649.55 249.96 729.84 249.96C810.13 249.96 874.2 276.43 935.84 302.15C998.01 328.05 1062.63 354.71 1144 354.71L1144 351.87C1063.71 351.87 999.64 325.4 938 299.69C875.28 273.97 810.94 247.31 729.57 247.31Z" fill="#7587C7" fill-opacity="0.020000" fill-rule="nonzero"/>
		<path id="Vector" d="M729.57 266.41C648.2 266.41 583.86 293.07 521.41 318.97C459.51 344.69 395.71 371.16 315.42 371.16C235.13 371.16 171.33 344.69 109.42 318.97C76.17 305.17 42.11 290.99 5.62 280.97L4.26 283.62C40.49 293.64 74.55 307.63 107.53 321.43C169.71 347.34 234.32 374 315.69 374C397.06 374 461.4 347.34 523.85 321.43C585.75 295.72 649.55 269.25 729.84 269.25C810.13 269.25 874.2 295.72 935.84 321.43C998.01 347.34 1062.63 374 1144 374L1144 371.16C1063.71 371.16 999.64 344.69 938 318.97C875.28 293.07 810.94 266.41 729.57 266.41Z" fill="#7587C7" fill-opacity="0.020000" fill-rule="nonzero"/>
	</g>
</svg>
