<svg width="53" height="53" viewBox="0 0 53 53" fill="none" xmlns="http://www.w3.org/2000/svg">
<g filter="url(#filter0_d_25_257)">
<path d="M48.7288 1.09094C48.7288 0.488415 48.2404 0 47.6379 0H37.6108C37.0083 0 36.5199 0.488415 36.5199 1.09094C36.5199 1.69347 37.0083 2.18189 37.6108 2.18189H45.1585L30.7331 17.0689C29.6092 18.2287 27.8327 18.3993 26.5087 17.4746L20.5393 13.3055C18.3096 11.7481 15.2405 12.0838 13.4001 14.086L4.28774 23.9995C3.88005 24.4431 3.90907 25.1334 4.35265 25.541C4.56222 25.7337 4.82677 25.8288 5.09067 25.8288C5.38534 25.8288 5.67902 25.7101 5.89415 25.4762L15.0065 15.5627C16.1107 14.3615 17.9521 14.1601 19.2899 15.0944L25.2594 19.2635C27.4661 20.8046 30.4269 20.5203 32.3 18.5874L46.5469 3.88452V11.1181C46.5469 11.7207 47.0354 12.2091 47.6379 12.2091C48.2404 12.2091 48.7288 11.7207 48.7288 11.1181V1.09094Z" fill="#E80F0F"/>
<path d="M48.7289 43.4141V22.9591C48.7289 22.3566 48.2404 21.8682 47.6379 21.8682C47.0354 21.8682 46.547 22.3566 46.547 22.9591V42.3231H35.8773V28.0997C35.8773 27.4973 35.3889 27.0088 34.7864 27.0088C34.1839 27.0088 33.6955 27.4973 33.6955 28.0997V42.3231H23.0258V34.0771C23.0258 33.4747 22.5374 32.9862 21.9349 32.9862C21.3323 32.9862 20.8439 33.4747 20.8439 34.0771V42.3231H9.53162V34.125C9.53162 33.5226 9.0432 33.0341 8.44067 33.0341C7.83815 33.0341 7.34973 33.5226 7.34973 34.125V43.414C7.34973 44.0164 7.83815 44.5049 8.44067 44.5049H47.6379C48.2404 44.505 48.7289 44.0165 48.7289 43.4141Z" fill="#E80F0F"/>
</g>
<defs>
<filter id="filter0_d_25_257" x="0" y="0" width="52.7289" height="52.5049" filterUnits="userSpaceOnUse" color-interpolation-filters="sRGB">
<feFlood flood-opacity="0" result="BackgroundImageFix"/>
<feColorMatrix in="SourceAlpha" type="matrix" values="0 0 0 0 0 0 0 0 0 0 0 0 0 0 0 0 0 0 127 0" result="hardAlpha"/>
<feOffset dy="4"/>
<feGaussianBlur stdDeviation="2"/>
<feComposite in2="hardAlpha" operator="out"/>
<feColorMatrix type="matrix" values="0 0 0 0 0 0 0 0 0 0 0 0 0 0 0 0 0 0 0.25 0"/>
<feBlend mode="normal" in2="BackgroundImageFix" result="effect1_dropShadow_25_257"/>
<feBlend mode="normal" in="SourceGraphic" in2="effect1_dropShadow_25_257" result="shape"/>
</filter>
</defs>
</svg>
