<svg width="50" height="42" viewBox="0 0 50 42" fill="none" xmlns="http://www.w3.org/2000/svg">
<path d="M35.9091 40.2726V35.9089C35.9091 33.5943 34.9896 31.3745 33.3529 29.7378C31.7163 28.1011 29.4964 27.1816 27.1818 27.1816H9.72727C7.41266 27.1816 5.19284 28.1011 3.55616 29.7378C1.91948 31.3745 1 33.5943 1 35.9089V40.2726" stroke="#D7187F" stroke-width="2" stroke-linecap="round" stroke-linejoin="round"/>
<path d="M18.4546 18.4545C23.2745 18.4545 27.1818 14.5472 27.1818 9.72727C27.1818 4.90733 23.2745 1 18.4546 1C13.6346 1 9.72729 4.90733 9.72729 9.72727C9.72729 14.5472 13.6346 18.4545 18.4546 18.4545Z" stroke="#D7187F" stroke-width="2" stroke-linecap="round" stroke-linejoin="round"/>
<path d="M49 40.2726V35.909C48.9985 33.9753 48.3549 32.0968 47.1702 30.5686C45.9855 29.0403 44.3268 27.9488 42.4545 27.4653" stroke="#D7187F" stroke-width="2" stroke-linecap="round" stroke-linejoin="round"/>
<path d="M33.7273 1.2832C35.6046 1.76386 37.2685 2.85564 38.4567 4.38643C39.6449 5.91721 40.2899 7.79992 40.2899 9.73775C40.2899 11.6756 39.6449 13.5583 38.4567 15.0891C37.2685 16.6199 35.6046 17.7116 33.7273 18.1923" stroke="#D7187F" stroke-width="2" stroke-linecap="round" stroke-linejoin="round"/>
</svg>
